<svg width="21" height="17" viewBox="0 0 21 17" fill="none" xmlns="http://www.w3.org/2000/svg">
<path d="M3.25 0H17.3333C18.1953 0 19.0219 0.34241 19.6314 0.951903C20.2409 1.5614 20.5833 2.38805 20.5833 3.25V13C20.5833 13.862 20.2409 14.6886 19.6314 15.2981C19.0219 15.9076 18.1953 16.25 17.3333 16.25H3.25C2.38805 16.25 1.5614 15.9076 0.951903 15.2981C0.34241 14.6886 0 13.862 0 13V3.25C0 2.38805 0.34241 1.5614 0.951903 0.951903C1.5614 0.34241 2.38805 0 3.25 0ZM3.25 1.08333C2.70833 1.08333 2.23167 1.2675 1.86333 1.5925L10.2917 7.04167L18.72 1.5925C18.3517 1.2675 17.875 1.08333 17.3333 1.08333H3.25ZM10.2917 8.3525L1.22417 2.47C1.1375 2.70833 1.08333 2.97917 1.08333 3.25V13C1.08333 13.5746 1.31161 14.1257 1.71794 14.5321C2.12426 14.9384 2.67536 15.1667 3.25 15.1667H17.3333C17.908 15.1667 18.4591 14.9384 18.8654 14.5321C19.2717 14.1257 19.5 13.5746 19.5 13V3.25C19.5 2.97917 19.4458 2.70833 19.3592 2.47L10.2917 8.3525Z" fill="white"/>
</svg>
