<svg width="21" height="21" viewBox="0 0 21 21" fill="none" xmlns="http://www.w3.org/2000/svg">
<path d="M15.6667 4.29167H16.2083M0.5 7.43333C0.5 5.00667 0.5 3.79333 0.972333 2.866C1.38778 2.05067 2.05067 1.38778 2.866 0.972333C3.79333 0.5 5.00667 0.5 7.43333 0.5H13.0667C15.4933 0.5 16.7067 0.5 17.634 0.972333C18.4493 1.38778 19.1122 2.05067 19.5277 2.866C20 3.79333 20 5.00667 20 7.43333V13.0667C20 15.4933 20 16.7067 19.5277 17.634C19.1122 18.4493 18.4493 19.1122 17.634 19.5277C16.7067 20 15.4933 20 13.0667 20H7.43333C5.00667 20 3.79333 20 2.866 19.5277C2.05067 19.1122 1.38778 18.4493 0.972333 17.634C0.5 16.7067 0.5 15.4933 0.5 13.0667V7.43333Z" stroke="white" stroke-linecap="round" stroke-linejoin="round"/>
<path d="M14.0004 9.69426C14.0734 10.1869 14.0487 10.689 13.9276 11.172C13.8065 11.6551 13.5915 12.1095 13.2948 12.5094C12.9981 12.9093 12.6255 13.2469 12.1983 13.5028C11.7711 13.7588 11.2977 13.9281 10.8052 14.0011C10.3126 14.074 9.81041 14.0493 9.32739 13.9282C8.84436 13.8071 8.38991 13.5921 7.98999 13.2954C7.18231 12.6961 6.64575 11.8006 6.49836 10.8058C6.35097 9.81092 6.60481 8.79828 7.20404 7.9906C7.80327 7.18292 8.69881 6.64636 9.69365 6.49897C10.6885 6.35158 11.7011 6.60542 12.5088 7.20465C13.3165 7.80388 13.853 8.69942 14.0004 9.69426Z" stroke="white" stroke-linecap="round" stroke-linejoin="round"/>
</svg>
