<svg width="26" height="26" viewBox="0 0 26 26" fill="none" xmlns="http://www.w3.org/2000/svg">
<path d="M18.4167 7.04167H18.9583M3.25 10.1833C3.25 7.75667 3.25 6.54333 3.72233 5.616C4.13778 4.80067 4.80067 4.13778 5.616 3.72233C6.54333 3.25 7.75667 3.25 10.1833 3.25H15.8167C18.2433 3.25 19.4567 3.25 20.384 3.72233C21.1993 4.13778 21.8622 4.80067 22.2777 5.616C22.75 6.54333 22.75 7.75667 22.75 10.1833V15.8167C22.75 18.2433 22.75 19.4567 22.2777 20.384C21.8622 21.1993 21.1993 21.8622 20.384 22.2777C19.4567 22.75 18.2433 22.75 15.8167 22.75H10.1833C7.75667 22.75 6.54333 22.75 5.616 22.2777C4.80067 21.8622 4.13778 21.1993 3.72233 20.384C3.25 19.4567 3.25 18.2433 3.25 15.8167V10.1833Z" stroke="white" stroke-linecap="round" stroke-linejoin="round"/>
<path d="M16.7504 12.4443C16.8234 12.9369 16.7987 13.439 16.6776 13.922C16.5565 14.4051 16.3415 14.8595 16.0448 15.2594C15.7481 15.6593 15.3755 15.9969 14.9483 16.2528C14.5211 16.5088 14.0477 16.6781 13.5552 16.7511C13.0626 16.824 12.5604 16.7993 12.0774 16.6782C11.5944 16.5571 11.1399 16.3421 10.74 16.0454C9.93231 15.4461 9.39575 14.5506 9.24836 13.5558C9.10097 12.5609 9.35481 11.5483 9.95404 10.7406C10.5533 9.93292 11.4488 9.39636 12.4437 9.24897C13.4385 9.10158 14.4511 9.35542 15.2588 9.95465C16.0665 10.5539 16.603 11.4494 16.7504 12.4443Z" stroke="white" stroke-linecap="round" stroke-linejoin="round"/>
</svg>
