<svg width="16" height="16" viewBox="0 0 16 16" fill="none" xmlns="http://www.w3.org/2000/svg">
<path d="M10.8333 15.1667C10.2375 15.1667 9.72761 14.9547 9.30367 14.5308C8.87972 14.1068 8.66739 13.5966 8.66667 13V2.16667C8.66667 1.57083 8.879 1.06094 9.30367 0.637C9.72833 0.213055 10.2382 0.000722222 10.8333 0H13C13.5958 0 14.1061 0.212333 14.5308 0.637C14.9554 1.06167 15.1674 1.57156 15.1667 2.16667V13C15.1667 13.5958 14.9547 14.1061 14.5308 14.5308C14.1068 14.9554 13.5966 15.1674 13 15.1667H10.8333ZM2.16667 15.1667C1.57083 15.1667 1.06094 14.9547 0.637 14.5308C0.213055 14.1068 0.000722222 13.5966 0 13V2.16667C0 1.57083 0.212333 1.06094 0.637 0.637C1.06167 0.213055 1.57156 0.000722222 2.16667 0H4.33333C4.92917 0 5.43942 0.212333 5.86408 0.637C6.28875 1.06167 6.50072 1.57156 6.5 2.16667V13C6.5 13.5958 6.28803 14.1061 5.86408 14.5308C5.44014 14.9554 4.92989 15.1674 4.33333 15.1667H2.16667ZM10.8333 13H13V2.16667H10.8333V13ZM2.16667 13H4.33333V2.16667H2.16667V13Z" fill="white"/>
</svg>
