<svg width="9" height="9" viewBox="0 0 9 9" fill="none" xmlns="http://www.w3.org/2000/svg">
<path d="M3.59028 0.326488C3.75136 -0.108821 4.36705 -0.108821 4.52813 0.326488L5.32987 2.49316C5.38051 2.63002 5.48842 2.73793 5.62528 2.78857L7.79195 3.59031C8.22726 3.75139 8.22726 4.36708 7.79195 4.52816L5.62528 5.3299C5.48842 5.38054 5.38051 5.48845 5.32987 5.62531L4.52813 7.79198C4.36705 8.22729 3.75136 8.22729 3.59028 7.79198L2.78854 5.62531C2.73789 5.48845 2.62999 5.38054 2.49313 5.3299L0.326458 4.52816C-0.108851 4.36708 -0.108852 3.75139 0.326457 3.59031L2.49313 2.78857C2.62999 2.73793 2.73789 2.63002 2.78854 2.49316L3.59028 0.326488Z" fill="white"/>
</svg>
